<svg width="16" height="15" viewBox="0 0 16 15" fill="current" xmlns="http://www.w3.org/2000/svg">
<path d="M1.18847 13.0507C0.81933 13.4198 0.801752 14.079 1.19726 14.4657C1.58398 14.8524 2.24316 14.8436 2.6123 14.4745L7.99121 9.0868L13.3789 14.4745C13.7568 14.8524 14.4072 14.8524 14.7939 14.4657C15.1719 14.0702 15.1807 13.4286 14.7939 13.0507L9.41503 7.66297L14.7939 2.28407C15.1807 1.90614 15.1807 1.25575 14.7939 0.869028C14.3984 0.491098 13.7568 0.482309 13.3789 0.860239L7.99121 6.24793L2.6123 0.860239C2.24316 0.491098 1.57519 0.47352 1.19726 0.869028C0.810541 1.25575 0.81933 1.91493 1.18847 2.28407L6.57617 7.66297L1.18847 13.0507Z" fill="#FFFFFF"/>
</svg>
