<svg width="18" height="19" viewBox="0 0 18 19" fill="none" xmlns="http://www.w3.org/2000/svg">
<g clip-path="url(#clip0_91_8824)">
<path d="M17.785 9.66994C17.785 8.93194 17.725 8.39394 17.596 7.83594H9.17603V11.1639H14.118C14.018 11.9919 13.48 13.2369 12.284 14.0739L12.268 14.1859L14.93 16.2489L15.115 16.2669C16.809 14.7019 17.785 12.3999 17.785 9.66994Z" fill="#4285F4"/>
<path d="M9.17509 18.4372C11.5971 18.4372 13.6301 17.6402 15.1151 16.2652L12.2851 14.0722C11.5271 14.6002 10.5111 14.9692 9.17509 14.9692C6.80309 14.9692 4.79009 13.4052 4.07309 11.2422L3.96809 11.2522L1.19909 13.3942L1.16309 13.4942C2.63809 16.4242 5.66709 18.4372 9.17509 18.4372Z" fill="#34A853"/>
<path d="M4.07305 11.2434C3.88305 10.6854 3.77305 10.0874 3.77305 9.46939C3.77305 8.85139 3.88305 8.25339 4.06305 7.69539L4.05805 7.57639L1.25405 5.40039L1.16305 5.44439C0.555055 6.65939 0.206055 8.02439 0.206055 9.46939C0.206055 10.9144 0.555055 12.2794 1.16305 13.4954L4.07305 11.2434Z" fill="#FBBC05"/>
<path d="M9.17509 3.968C10.8591 3.968 11.9951 4.696 12.6431 5.303L15.1741 2.832C13.6201 1.387 11.5981 0.5 9.17509 0.5C5.66709 0.5 2.63809 2.513 1.16309 5.443L4.06309 7.695C4.79009 5.533 6.80309 3.968 9.17509 3.968Z" fill="#EB4335"/>
</g>
<defs>
<clipPath id="clip0_91_8824">
<rect width="18" height="18" fill="white" transform="translate(0 0.5)"/>
</clipPath>
</defs>
</svg>
